# xmcd
#
# Track frame offsets:
#	150
#	12029
#	24711
#	37883
#	49919
#	60613
#	71511
#	85812
#	95781
#	108765
#	119643
#	130090
#	142394
#	155411
#	167807
#	179136
#	191564
#	204041
#	216655
#	230460
#	243777
#	258442
#	269600
#	279996
#	292545
#
# Disc length: 4056 seconds
#
# Revision: 0
# Processed by: cddbd v1.5.2PL0 Copyright (c) Steve Scherf et al.
# Submitted via: audiograbber 1.83.01
#
DISCID=700fd619
DTITLE=Roy Orbison - The Monumental Roy Orbison - Volume 3
DYEAR=2013
DGENRE=Rock and Roll
TTITLE0=(I Get So) Sentimental
TTITLE1=In Dreams
TTITLE2=Lonely Wine
TTITLE3=Shahdaroba
TTITLE4=Falling
TTITLE5=Mean Woman Blues
TTITLE6=Distant Drums
TTITLE7=Dream
TTITLE8=Borne On The Wind
TTITLE9=All I Have To Do Is Dream
TTITLE10=Beautiful Dreamer
TTITLE11=My Prayer
TTITLE12=What'd I Say
TTITLE13=Mama (sung in German)
TTITLE14=San Fernando (sung in German)
TTITLE15=Almost
TTITLE16=Pretty Paper
TTITLE17=It's Over
TTITLE18=Indian Wedding
TTITLE19=Oh Pretty Woman
TTITLE20=Yo Te Amo Maria
TTITLE21=Goodnight
TTITLE22=Only With You
TTITLE23=(Say) You're My Girl
TTITLE24=Sleepy Hollow
EXTD=Third of 4 volumes. Roy Orbison's Monument recordings 1959-1965, in order 
EXTD=of production.
EXTT0=
EXTT1=
EXTT2=
EXTT3=
EXTT4=
EXTT5=
EXTT6=
EXTT7=
EXTT8=
EXTT9=
EXTT10=
EXTT11=
EXTT12=
EXTT13=
EXTT14=
EXTT15=
EXTT16=
EXTT17=
EXTT18=
EXTT19=
EXTT20=
EXTT21=
EXTT22=
EXTT23=
EXTT24=
PLAYORDER=
